<?xml version="1.0" encoding="utf-8"?>
<!-- Generator: Adobe Illustrator 21.0.0, SVG Export Plug-In . SVG Version: 6.00 Build 0)  -->
<svg version="1.1" id="Layer_1" xmlns="http://www.w3.org/2000/svg" xmlns:xlink="http://www.w3.org/1999/xlink" x="0px" y="0px"
	 width="512px" height="512px" viewBox="0 0 512 512" style="enable-background:new 0 0 512 512;" xml:space="preserve">
<style type="text/css">
	.st0{fill:url(#SVGID_1_);}
	.st1{fill:#FEFEFE  ;}
</style>
<defs>
    <filter id="f3"  x="-50%" y="-50%" width="200%" height="200%">
	    <feGaussianBlur in="SourceAlpha" stdDeviation="10"/> <!-- stdDeviation is how much to blur -->
	    <feOffset dx="0" dy="5" result="offsetblur"/> <!-- how much to offset -->
		<feComponentTransfer>
			<feFuncA type="linear" slope="0.2"/>
		</feComponentTransfer>
	    <feMerge> 
	      <feMergeNode /> <!-- this contains the offset blurred image -->
	      <feMergeNode in="SourceGraphic"/> <!-- this contains the element that the filter is applied to -->
	    </feMerge>
    </filter>
  </defs>
  
<linearGradient id="SVGID_1_" gradientUnits="userSpaceOnUse" x1="256" y1="1.816494e-02" x2="256" y2="512.1711">
	<stop offset="0" style="stop-color:#FFFFFF;stop-opacity:0.4"/>
	<stop offset="1" style="stop-color:#FFFFFF;stop-opacity:0.1"/>
</linearGradient>
<rect y="0" class="st0" width="512" height="512"/>
<g>
	<path class="st1" d="M345.4,135.7c0-8.7-2.7-10.9-11.3-9.5c-36.8,6.2-73.8,11.7-110.6,17.6c-28.6,4.6-28.6,4.8-28.9,32.8
		c0.1,20.1,0.1,40.2,0.2,60.3c0,0,0,0,0,0c-0.1,13.4-0.1,26.8-0.2,40.1c0,16.7,0,33.5,0,50.2c-22.2-2.8-41.6,1.4-54.3,22.1
		c-6.1,17.7-1.1,31.2,13.5,37.5c21.5,9.2,61.6-4.7,61-39.5c-0.3-15.3-0.1-30.7-0.2-46c0.1-7.4,0.2-14.9,0.3-22.3
		c0-22.7,0-45.4,0-68.1c33.9-5.9,67.7-11.9,101.6-17.3c1.4-0.2,8-1.3,8-1.3s0.1,6.2,0.1,7.1c0.3,33.7,0,67.4-0.3,101.1
		c0,0.9-0.8,1.8-1.2,2.7c0,0,0,0,0,0c-21.7-2.8-40.2,2-52.5,22c-6.9,20.3,0.9,35.7,20.2,39.6c28.7,5.9,54.1-14.4,54.3-43.6
		c0-4,0.1-8,0.2-12C345.3,295.2,345.4,145,345.4,135.7z" filter="url(#f3)" />
</g>
</svg>
