<?xml version="1.0"?>
<svg xmlns="http://www.w3.org/2000/svg" width="154px" height="154px" viewBox="0 0 100 100" preserveAspectRatio="xMidYMid" class="uil-default">
	<rect x="48" y="42" width="4" height="16" rx="0" ry="0" fill="#efefef" transform="rotate(0 50 50) translate(0 -20)">
		<animate attributeName="opacity" from="1" to="0" dur="0.8s" begin="0s" repeatCount="indefinite"/>
	</rect>
	<rect x="48" y="42" width="4" height="16" rx="0" ry="0" fill="#efefef" transform="rotate(30 50 50) translate(0 -20)">
		<animate attributeName="opacity" from="1" to="0" dur="0.8s" begin="0.06666666666666667s" repeatCount="indefinite"/>
	</rect>
	<rect x="48" y="42" width="4" height="16" rx="0" ry="0" fill="#efefef" transform="rotate(60 50 50) translate(0 -20)">
		<animate attributeName="opacity" from="1" to="0" dur="0.8s" begin="0.13333333333333333s" repeatCount="indefinite"/>
	</rect>
	<rect x="48" y="42" width="4" height="16" rx="0" ry="0" fill="#efefef" transform="rotate(90 50 50) translate(0 -20)">
		<animate attributeName="opacity" from="1" to="0" dur="0.8s" begin="0.20000000000000004s" repeatCount="indefinite"/>
	</rect>
	<rect x="48" y="42" width="4" height="16" rx="0" ry="0" fill="#efefef" transform="rotate(120 50 50) translate(0 -20)">
		<animate attributeName="opacity" from="1" to="0" dur="0.8s" begin="0.26666666666666666s" repeatCount="indefinite"/>
	</rect>
	<rect x="48" y="42" width="4" height="16" rx="0" ry="0" fill="#efefef" transform="rotate(150 50 50) translate(0 -20)">
		<animate attributeName="opacity" from="1" to="0" dur="0.8s" begin="0.3333333333333333s" repeatCount="indefinite"/>
	</rect>
	<rect x="48" y="42" width="4" height="16" rx="0" ry="0" fill="#efefef" transform="rotate(180 50 50) translate(0 -20)">
		<animate attributeName="opacity" from="1" to="0" dur="0.8s" begin="0.4000000000000001s" repeatCount="indefinite"/>
	</rect>
	<rect x="48" y="42" width="4" height="16" rx="0" ry="0" fill="#efefef" transform="rotate(210 50 50) translate(0 -20)">
		<animate attributeName="opacity" from="1" to="0" dur="0.8s" begin="0.46666666666666673s" repeatCount="indefinite"/>
	</rect>
	<rect x="48" y="42" width="4" height="16" rx="0" ry="0" fill="#efefef" transform="rotate(240 50 50) translate(0 -20)">
		<animate attributeName="opacity" from="1" to="0" dur="0.8s" begin="0.5333333333333333s" repeatCount="indefinite"/>
	</rect>
	<rect x="48" y="42" width="4" height="16" rx="0" ry="0" fill="#efefef" transform="rotate(270 50 50) translate(0 -20)">
		<animate attributeName="opacity" from="1" to="0" dur="0.8s" begin="0.6s" repeatCount="indefinite"/>
	</rect>
	<rect x="48" y="42" width="4" height="16" rx="0" ry="0" fill="#efefef" transform="rotate(300 50 50) translate(0 -20)">
		<animate attributeName="opacity" from="1" to="0" dur="0.8s" begin="0.6666666666666666s" repeatCount="indefinite"/>
	</rect>
	<rect x="48" y="42" width="4" height="16" rx="0" ry="0" fill="#efefef" transform="rotate(330 50 50) translate(0 -20)">
		<animate attributeName="opacity" from="1" to="0" dur="0.8s" begin="0.7333333333333334s" repeatCount="indefinite"/>
	</rect>
</svg>
